<svg xmlns="http://www.w3.org/2000/svg" viewBox="0 0 164 48">
  <defs>
    <linearGradient id="lp-logo-grad" x1="0" y1="0" x2="1" y2="1">
      <stop offset="0" stop-color="#00c56f"/>
      <stop offset="1" stop-color="#0ea5a5"/>
    </linearGradient>
    <filter id="lp-logo-shadow" x="-50%" y="-50%" width="200%" height="200%">
      <feDropShadow dx="0" dy="6" stdDeviation="8" flood-color="#00b96b" flood-opacity="0.13"/>
    </filter>
  </defs>
  <rect width="48" height="48" rx="12" fill="url(#lp-logo-grad)" filter="url(#lp-logo-shadow)"/>
  <g transform="translate(7 7) scale(0.7083)" fill="none">
    <path d="M18 12.5c-2.4-1.5-2.2-4.6.5-6.3" stroke="#fff" stroke-width="2.6" stroke-linecap="round"/>
    <path d="M30 12.5c2.4-1.5 2.2-4.6-.5-6.3" stroke="#fff" stroke-width="2.6" stroke-linecap="round"/>
    <path d="M31 19.5 43 7" stroke="#c8803e" stroke-width="2.4" stroke-linecap="round"/>
    <path d="M34.5 20.5 45.5 10.5" stroke="#c8803e" stroke-width="2.4" stroke-linecap="round"/>
    <path d="M6.5 21q3-5 6.5 0t6.5 0 6.5 0 6.5 0 6.5 0v1H6.5z" fill="#ffce54"/>
    <ellipse cx="24" cy="22" rx="19.5" ry="3.2" fill="#fff"/>
    <path d="M6.5 22h35a1 1 0 0 1 1 1 18.5 18.5 0 0 1-37 0 1 1 0 0 1 1-1z" fill="#fff"/>
    <path d="M18.5 41h11" stroke="#fff" stroke-width="3" stroke-linecap="round" opacity=".85"/>
    <circle cx="18" cy="30" r="2.5" fill="#0b1220"/>
    <circle cx="30" cy="30" r="2.5" fill="#0b1220"/>
    <path d="M18.8 34.2c1.7 2.2 6.7 2.2 8.4 0" stroke="#0b1220" stroke-width="2.2" stroke-linecap="round"/>
    <circle cx="13.3" cy="33" r="2" fill="#ff8fa3" opacity=".55"/>
    <circle cx="34.7" cy="33" r="2" fill="#ff8fa3" opacity=".55"/>
  </g>
  <g aria-hidden="true">
    <path fill="currentColor" d="M61.13 31.28V16.72H64.58V28.46H70.66V31.28Z M75.82 31.41Q74.68 31.41 73.82 30.9Q72.97 30.39 72.5 29.47Q72.04 28.54 72.04 27.31V20.36H75.44V26.65Q75.44 27.57 75.91 28.09Q76.38 28.61 77.22 28.61Q77.78 28.61 78.2 28.37Q78.61 28.13 78.85 27.67Q79.08 27.22 79.08 26.59V20.36H82.49V31.28H79.28L79.23 28.52H79.37Q78.97 29.83 78.11 30.62Q77.25 31.41 75.82 31.41Z M87.75 25.04V31.28H84.34V20.36H87.54L87.61 23.12H87.46Q87.86 21.81 88.72 21.02Q89.57 20.22 91.01 20.22Q92.16 20.22 93.01 20.73Q93.86 21.24 94.33 22.16Q94.79 23.09 94.79 24.33V31.28H91.39V24.99Q91.39 24.07 90.92 23.54Q90.45 23.02 89.61 23.02Q89.06 23.02 88.64 23.26Q88.22 23.5 87.98 23.95Q87.75 24.4 87.75 25.04Z M101.71 31.48Q100 31.48 98.77 30.77Q97.54 30.07 96.88 28.8Q96.22 27.53 96.22 25.86Q96.22 24.17 96.88 22.9Q97.54 21.63 98.77 20.93Q100 20.22 101.71 20.22Q102.76 20.22 103.62 20.49Q104.49 20.76 105.14 21.27Q105.8 21.77 106.2 22.49Q106.61 23.21 106.74 24.1L103.59 24.62Q103.51 24.19 103.35 23.86Q103.2 23.53 102.96 23.3Q102.73 23.06 102.43 22.94Q102.12 22.82 101.75 22.82Q101.09 22.82 100.64 23.18Q100.18 23.54 99.94 24.22Q99.69 24.89 99.69 25.84Q99.69 26.77 99.94 27.46Q100.18 28.14 100.64 28.51Q101.09 28.88 101.75 28.88Q102.13 28.88 102.43 28.75Q102.74 28.63 102.98 28.39Q103.22 28.15 103.37 27.8Q103.53 27.45 103.61 27.01L106.75 27.53Q106.62 28.45 106.22 29.17Q105.81 29.9 105.16 30.42Q104.5 30.93 103.63 31.21Q102.76 31.48 101.71 31.48Z M111.56 25.04V31.28H108.15V16.72H111.48V23.12H111.27Q111.67 21.81 112.53 21.02Q113.38 20.22 114.82 20.22Q115.97 20.22 116.82 20.73Q117.67 21.24 118.14 22.16Q118.61 23.09 118.61 24.33V31.28H115.2V24.99Q115.2 24.07 114.73 23.54Q114.26 23.02 113.42 23.02Q112.87 23.02 112.45 23.26Q112.03 23.5 111.79 23.95Q111.56 24.4 111.56 25.04Z"/>
    <path fill="var(--ui-primary, #00b96b)" d="M120.46 31.28V16.72H126.42Q128.06 16.72 129.25 17.36Q130.44 17.99 131.08 19.13Q131.73 20.26 131.73 21.75Q131.73 23.25 131.07 24.37Q130.42 25.49 129.2 26.11Q127.99 26.73 126.32 26.73H122.63V24.01H125.69Q126.5 24.01 127.05 23.73Q127.6 23.44 127.87 22.93Q128.15 22.43 128.15 21.75Q128.15 21.07 127.87 20.57Q127.6 20.06 127.05 19.79Q126.5 19.52 125.69 19.52H123.91V31.28Z M138.16 31.48Q136.45 31.48 135.22 30.77Q133.99 30.07 133.33 28.8Q132.67 27.53 132.67 25.86Q132.67 24.17 133.33 22.9Q133.99 21.63 135.22 20.93Q136.45 20.22 138.16 20.22Q139.87 20.22 141.1 20.93Q142.32 21.63 142.98 22.9Q143.64 24.17 143.64 25.86Q143.64 27.53 142.98 28.8Q142.32 30.07 141.1 30.77Q139.87 31.48 138.16 31.48ZM138.16 28.88Q138.81 28.88 139.26 28.5Q139.71 28.11 139.94 27.43Q140.17 26.74 140.17 25.84Q140.17 24.93 139.94 24.25Q139.71 23.57 139.26 23.2Q138.81 22.82 138.16 22.82Q137.5 22.82 137.05 23.2Q136.6 23.57 136.37 24.25Q136.14 24.92 136.14 25.84Q136.14 26.74 136.37 27.43Q136.6 28.11 137.05 28.5Q137.5 28.88 138.16 28.88Z M150.14 31.48Q148.44 31.48 147.2 30.77Q145.97 30.07 145.31 28.8Q144.65 27.53 144.65 25.86Q144.65 24.17 145.31 22.9Q145.97 21.63 147.2 20.93Q148.44 20.22 150.14 20.22Q151.85 20.22 153.08 20.93Q154.31 21.63 154.96 22.9Q155.62 24.17 155.62 25.86Q155.62 27.53 154.96 28.8Q154.31 30.07 153.08 30.77Q151.85 31.48 150.14 31.48ZM150.14 28.88Q150.79 28.88 151.24 28.5Q151.69 28.11 151.92 27.43Q152.15 26.74 152.15 25.84Q152.15 24.93 151.92 24.25Q151.69 23.57 151.24 23.2Q150.79 22.82 150.14 22.82Q149.49 22.82 149.04 23.2Q148.58 23.57 148.35 24.25Q148.12 24.92 148.12 25.84Q148.12 26.74 148.35 27.43Q148.58 28.11 149.04 28.5Q149.49 28.88 150.14 28.88Z M160.46 16.72V31.28H157.06V16.72Z"/>
  </g>
</svg>
